# xmcd
#
# Track frame offsets: 
#        183
#        26570
#        47395
#        63133
#        84983
#        102633
#        118483
#        135708
#        148445
#        161708
#        174483
#        192383
#        210270
#        229108
#
# Disc length: 3325 seconds
#
# Revision: 1
# Processed by: cddbd v1.5.2PL0 Copyright (c) Steve Scherf et al.
# Submitted via: ExactAudioCopyFreeDBPlugin 1.0
#
DISCID=c70cfb0e
DTITLE=Various Artist - 1980's the story of the eighties CD1
DYEAR=1992
DGENRE=Pop
TTITLE0=Sniff 'n the tears - Driver's seat
TTITLE1=Doris D. and The Pins - Shine up
TTITLE2=Dr. Pop - World at war
TTITLE3=Prelude - Platinum blonde
TTITLE4=Dave Stewart feat. Colin Blunstone - What becomes of the broke
TTITLE4=n hearted
TTITLE5=Marcia Hines - Your love still brings me to my knees
TTITLE6=Dave Steward feat. Barbara Gaskin - It's my party
TTITLE7=Fun Boy Three and Bananarama - It ain't what you do it's the way
TTITLE7=that you do it
TTITLE8=Maisonettes - Heartache avenue
TTITLE9=Belle Stars - Sign of the times
TTITLE10=Little Seven and The Disciples of Soul - Forever
TTITLE11=America - The border
TTITLE12=Kajagoogoo - Big apple
TTITLE13=Jose - Time goes by
EXTD=
EXTT0=
EXTT1=
EXTT2=
EXTT3=
EXTT4=
EXTT5=
EXTT6=
EXTT7=
EXTT8=
EXTT9=
EXTT10=
EXTT11=
EXTT12=
EXTT13=
PLAYORDER=
